<svg xmlns="http://www.w3.org/2000/svg" viewBox="0 0 2000 1000">
  <defs>
    <style>
      .land { fill: rgba(255,255,255,0.12); stroke: rgba(255,255,255,0.06); stroke-width: 1; }
    </style>
  </defs>
  <!-- Simplified but accurate world map -->
  <g class="land">
    <!-- North America -->
    <path d="M 150,300 Q 180,250 220,230 Q 260,210 300,220 Q 340,230 370,250 Q 400,270 420,300 Q 440,330 450,370 Q 460,410 450,450 Q 440,490 420,520 Q 400,550 370,570 Q 340,590 300,590 Q 260,590 230,570 Q 200,550 180,520 Q 160,490 155,450 Q 150,410 155,370 Q 160,330 150,300 Z"/>
    <path d="M 300,590 Q 320,610 340,640 Q 360,670 370,700 Q 380,730 370,760 Q 360,790 340,810 Q 320,830 300,830 Q 280,830 265,815 Q 250,800 245,775 Q 240,750 245,720 Q 250,690 265,665 Q 280,640 300,620 Z"/>
    
    <!-- South America -->
    <path d="M 380,800 Q 400,790 420,800 Q 440,810 455,835 Q 470,860 475,895 Q 480,930 475,965 Q 470,1000 455,1030 Q 440,1060 420,1080 Q 400,1100 380,1100 Q 360,1100 345,1085 Q 330,1070 325,1045 Q 320,1020 325,990 Q 330,960 345,930 Q 360,900 380,870 Z"/>
    
    <!-- Europe -->
    <path d="M 900,250 Q 920,240 945,245 Q 970,250 990,265 Q 1010,280 1020,305 Q 1030,330 1025,355 Q 1020,380 1005,400 Q 990,420 970,425 Q 950,430 930,420 Q 910,410 900,390 Q 890,370 890,345 Q 890,320 895,295 Q 900,270 900,250 Z"/>
    
    <!-- Africa -->
    <path d="M 950,450 Q 980,440 1010,450 Q 1040,460 1065,485 Q 1090,510 1105,545 Q 1120,580 1125,620 Q 1130,660 1125,700 Q 1120,740 1105,775 Q 1090,810 1065,835 Q 1040,860 1010,870 Q 980,880 950,870 Q 920,860 900,835 Q 880,810 870,775 Q 860,740 860,700 Q 860,660 870,620 Q 880,580 900,545 Q 920,510 950,480 Z"/>
    
    <!-- Asia -->
    <path d="M 1100,200 Q 1150,190 1200,195 Q 1250,200 1300,215 Q 1350,230 1400,255 Q 1450,280 1490,315 Q 1530,350 1555,395 Q 1580,440 1585,490 Q 1590,540 1575,585 Q 1560,630 1530,665 Q 1500,700 1460,720 Q 1420,740 1375,745 Q 1330,750 1285,740 Q 1240,730 1200,705 Q 1160,680 1130,645 Q 1100,610 1085,565 Q 1070,520 1070,470 Q 1070,420 1085,375 Q 1100,330 1125,290 Q 1150,250 1100,200 Z"/>
    
    <!-- Australia -->
    <path d="M 1500,800 Q 1530,790 1560,800 Q 1590,810 1615,835 Q 1640,860 1655,895 Q 1670,930 1670,970 Q 1670,1010 1655,1045 Q 1640,1080 1615,1105 Q 1590,1130 1560,1140 Q 1530,1150 1500,1140 Q 1470,1130 1450,1105 Q 1430,1080 1420,1045 Q 1410,1010 1415,970 Q 1420,930 1435,895 Q 1450,860 1475,835 Q 1500,810 1500,800 Z"/>
  </g>
</svg>
