<svg xmlns="http://www.w3.org/2000/svg" viewBox="0 0 1000 500" fill="none">
  <style>
    .continent { fill: #ffffff; opacity: 0.15; }
  </style>
  <!-- North America -->
  <path class="continent" d="M80,120 Q120,80 180,70 Q240,60 280,80 Q320,100 340,140 Q360,180 350,220 Q340,260 300,280 Q260,300 220,290 Q180,280 150,250 Q120,220 100,180 Q80,140 80,120 Z"/>
  <path class="continent" d="M150,250 Q180,280 200,320 Q220,360 210,400 Q200,440 170,460 Q140,480 110,470 Q80,460 70,430 Q60,400 70,360 Q80,320 100,290 Q120,260 150,250 Z"/>
  
  <!-- South America -->
  <path class="continent" d="M200,380 Q230,360 260,380 Q290,400 300,450 Q310,500 290,550 Q270,600 240,630 Q210,660 180,650 Q150,640 140,600 Q130,560 150,510 Q170,460 200,420 Z" transform="translate(0,-100)"/>
  
  <!-- Europe -->
  <path class="continent" d="M480,100 Q510,90 540,100 Q570,110 590,140 Q610,170 600,200 Q590,230 560,250 Q530,270 500,260 Q470,250 455,220 Q440,190 450,160 Q460,130 480,100 Z"/>
  
  <!-- Africa -->
  <path class="continent" d="M480,220 Q520,200 560,220 Q600,240 630,290 Q660,340 670,400 Q680,460 660,520 Q640,580 600,620 Q560,660 510,670 Q460,680 420,650 Q380,620 360,570 Q340,520 350,460 Q360,400 390,350 Q420,300 460,260 Q480,240 480,220 Z"/>
  
  <!-- Asia -->
  <path class="continent" d="M580,80 Q650,60 720,70 Q790,80 850,110 Q910,140 950,190 Q990,240 1000,300 Q1010,360 980,410 Q950,460 900,490 Q850,520 790,530 Q730,540 670,520 Q610,500 570,460 Q530,420 510,370 Q490,320 500,270 Q510,220 540,170 Q570,120 580,80 Z" transform="translate(-50,0)"/>
  
  <!-- Australia -->
  <path class="continent" d="M780,340 Q820,320 860,340 Q900,360 920,400 Q940,440 930,490 Q920,540 890,570 Q860,600 820,610 Q780,620 750,600 Q720,580 710,540 Q700,500 720,450 Q740,400 770,370 Q780,360 780,340 Z"/>
  
  <!-- Indonesia/SE Asia islands -->
  <path class="continent" d="M720,280 Q740,270 760,280 Q780,290 790,310 Q800,330 790,350 Q780,370 760,375 Q740,380 720,370 Q700,360 695,340 Q690,320 700,300 Q710,280 720,280 Z"/>
  
  <!-- Japan -->
  <path class="continent" d="M850,140 Q870,130 885,145 Q900,160 895,180 Q890,200 870,210 Q850,220 835,205 Q820,190 825,170 Q830,150 850,140 Z"/>
  
  <!-- UK -->
  <path class="continent" d="M450,110 Q460,100 475,105 Q490,110 495,125 Q500,140 490,150 Q480,160 465,155 Q450,150 445,135 Q440,120 450,110 Z"/>
  
  <!-- Greenland -->
  <path class="continent" d="M320,40 Q360,30 390,50 Q420,70 430,100 Q440,130 420,150 Q400,170 370,170 Q340,170 320,150 Q300,130 300,100 Q300,70 320,40 Z"/>
  
  <!-- New Zealand -->
  <path class="continent" d="M920,420 Q935,410 945,425 Q955,440 950,460 Q945,480 930,485 Q915,490 905,475 Q895,460 900,445 Q905,430 920,420 Z"/>
</svg>